<svg xmlns="http://www.w3.org/2000/svg" xmlns:xlink="http://www.w3.org/1999/xlink" id="Camada_1" x="0px" y="0px" viewBox="0 0 300 200" style="enable-background:new 0 0 300 200;" xml:space="preserve"><style type="text/css">	.st0{fill-rule:evenodd;clip-rule:evenodd;}	.st1{fill-rule:evenodd;clip-rule:evenodd;fill:#FFE600;}</style><g>	<g>		<path class="st0" d="M142.9,9.3c3.7-3.9,10-4.1,13.6,0.1l-3.9,4.5c-1.8,2.1-3.6,2.5-5.6,0.2L142.9,9.3z"></path>		<path class="st0" d="M134.7,11c6.2-2.1,7.9,1.7,12.3,6.5C139.1,20.9,138,13.9,134.7,11z"></path>		<path class="st0" d="M165,11c-6.2-2.1-7.9,1.7-12.3,6.5C160.6,20.9,161.7,13.9,165,11z"></path>		<path class="st0" d="M120.6,17.5c13.9-14,13.8,3.2,21.7,3.2C134.9,27.6,135.4,14.9,120.6,17.5z"></path>		<path class="st0" d="M178.9,17.5c-13.9-14-13.8,3.2-21.7,3.2C164.7,27.6,164.2,14.9,178.9,17.5z"></path>		<path class="st0" d="M147.7,87.8l-5.6-5.4c-1.5-1.4-1.6-2.5,0-3.7l5.3-3.9c2.1-1.2,2.9-1.1,5,0.1l5,3.7c1.9,1.4,1.8,2.3,0,4   l-5.7,5.3C150.1,89.5,149.3,89.4,147.7,87.8z"></path>		<path class="st0" d="M149.9,20.9L149.9,20.9L149.9,20.9c6,0,7.9,4.5,11.7,4.5c4.6,0,5.2-7.2,18.5-5.1c2.6,2.5,4.7,5.1,6.7,9.3   c-17-6.8-29.1,3.8-31.7,20.6c1.1-1.7,1.7-2.6,2.6-4.4c6.7,2.1,13.2-3.3,14.2-10.4c4.4-0.8,5.2,3.5,5,7.3c-0.5,9.5-7.3,9-9,16.2   c-0.8,3.4,0.6,21.8-6.7,15.9c-6.5-5.3-10.4-6.2-7.9-9.8c1.5-2,3.6-2.2,4.5-4.3c1.6-3.6-3.8-3.9-7.9-3.9h0c-4.1,0-9.5,0.3-7.9,3.9   c0.9,2.1,3.1,2.3,4.5,4.3c2.6,3.6-1.3,4.5-7.9,9.8c-7.2,5.9-5.9-12.6-6.7-15.9c-1.6-7.1-8.5-6.7-9-16.2c-0.2-3.8,0.5-8,4.9-7.1   c1.5,7,7.7,12.5,14.3,10.4c0.9,1.8,1.3,2.5,2.4,4.2c-3.4-16.9-14.5-27.4-31.5-20.6c1.8-3.9,3.8-6.9,6.5-9.3   c13.3-2.1,14,5.1,18.5,5.1C142.1,25.4,143.9,20.9,149.9,20.9L149.9,20.9z"></path>		<path class="st0" d="M191,43.9c-6.4-9.7-18.7-12.3-28.4-6.4c7.1-8.7,16.8-10.1,26-4.2C189.7,36.6,190.3,38.9,191,43.9z"></path>		<path class="st0" d="M178.5,39.6c-0.9,7.1,5.1,7.6,12.1,15C190.4,44.4,184.4,43.9,178.5,39.6z"></path>		<path class="st0" d="M177.8,47.1c-1.8,12,9.1,13.2,14.2,22.4C193.1,55.6,184.9,53.5,177.8,47.1z"></path>		<path class="st0" d="M174.5,54.2c-2.9,12.9,9.7,17.9,13.8,31.8C196.9,67.5,179.5,67.3,174.5,54.2z"></path>		<path class="st0" d="M172.9,66.3c-1,14.8,7.6,19.1,6.3,33C194.5,86.8,177,76.1,172.9,66.3z"></path>		<path class="st0" d="M169.8,74.5c-5.5,10.2,2.5,18,0.2,31.4C182.3,95.6,173.7,87.8,169.8,74.5z"></path>		<path class="st0" d="M159,91c-9.3,5.7-5.8,14.9-6.8,25.1C161.4,108.9,159.8,104.1,159,91z"></path>		<path class="st0" d="M166.5,83.7c-9,5.6,0.7,20.2-7.3,30C176,106.6,166.4,97.1,166.5,83.7z"></path>		<path class="st0" d="M109,43.9c6.4-9.7,18.7-12.3,28.4-6.4c-7.1-8.7-16.8-10.1-26-4.2C110.3,36.6,109.7,38.9,109,43.9z"></path>		<path class="st0" d="M121.5,39.6c0.9,7.1-5.1,7.6-12.1,15C109.6,44.4,115.6,43.9,121.5,39.6z"></path>		<path class="st0" d="M122.2,47.1c1.8,12-9.1,13.2-14.2,22.4C106.9,55.6,115.1,53.5,122.2,47.1z"></path>		<path class="st0" d="M125.5,54.2c2.9,12.9-9.7,17.9-13.8,31.8C103.1,67.5,120.5,67.3,125.5,54.2z"></path>		<path class="st0" d="M127.1,66.3c1,14.8-7.6,19.1-6.3,33C105.5,86.8,123,76.1,127.1,66.3z"></path>		<path class="st0" d="M130.2,74.5c5.5,10.2-2.5,18-0.2,31.4C117.7,95.6,126.3,87.8,130.2,74.5z"></path>		<path class="st0" d="M141,91c9.3,5.7,5.8,14.9,6.8,25.1C138.6,108.9,140.2,104.1,141,91z"></path>		<path class="st0" d="M133.5,83.7c9,5.6-0.7,20.2,7.3,30C124,106.6,133.6,97.1,133.5,83.7z"></path>		<path class="st1" d="M109,43.1c6.4-9.7,18.7-12.3,28.4-6.4c-7.1-8.7-16.8-10.1-26-4.2C110.3,35.8,109.7,38.1,109,43.1L109,43.1z    M120.6,16.7c13.9-14,13.8,3.2,21.7,3.2C134.9,26.8,135.4,14.1,120.6,16.7L120.6,16.7z M134.7,10.2c3.3,2.9,4.4,9.8,12.3,6.5   C142.6,12,140.9,8.2,134.7,10.2L134.7,10.2z M142.9,8.3c3.7-3.9,10-4.1,13.6,0.1l-3.9,4.5c-1.8,2.1-3.6,2.5-5.6,0.2L142.9,8.3   L142.9,8.3z M165,10.2c-6.2-2.1-7.9,1.7-12.3,6.5C160.6,20.1,161.7,13.1,165,10.2L165,10.2z M178.9,16.7   c-14.7-2.6-14.3,10.1-21.7,3.2C165.2,19.9,165.1,2.8,178.9,16.7L178.9,16.7z M149.9,19.8L149.9,19.8L149.9,19.8   c6,0,7.9,4.5,11.7,4.5c4.6,0,5.2-7.2,18.5-5.1c2.6,2.5,4.7,5.1,6.7,9.3c-17-6.8-30.9,5.7-32.2,23.1c1.1-1.7,2-3.1,2.9-4.9   c6.7,2.1,13.7-4.1,14.7-11.2c4.4-0.8,4.8,2.4,4.6,6.1c-0.5,9.5-7.3,9-9,16.2c-0.8,3.4,0.6,21.8-6.7,15.9   c-6.5-5.3-10.4-6.2-7.9-9.8c1.5-2,3.6-2.2,4.5-4.3c1.6-3.6-3.8-3.9-7.9-3.9h0c-4.1,0-9.5,0.3-7.9,3.9c0.9,2.1,3.1,2.3,4.5,4.3   c2.6,3.6-1.3,4.5-7.9,9.8c-7.2,5.9-5.9-12.6-6.7-15.9c-1.6-7.1-8.5-6.7-9-16.2c-0.2-3.8,0.2-6.9,4.6-6.1c1.1,7,7.9,13.2,14.5,11.2   c0.9,1.8,2.1,3.2,3.2,4.9c-2.1-17.4-15-29.9-32-23.1c1.8-3.9,3.8-6.9,6.5-9.3c13.3-2.1,14,5.1,18.5,5.1   C142.1,24.3,143.9,19.8,149.9,19.8L149.9,19.8L149.9,19.8z M191,43.1c-0.7-5.1-1.3-7.4-2.4-10.6c-9.3-5.9-19-4.5-26,4.2   C172.3,30.8,184.6,33.5,191,43.1L191,43.1z M180.3,38.8c-0.9,7.1,5.1,7.6,12.1,15C192.2,43.7,186.2,43.1,180.3,38.8L180.3,38.8z    M178.8,45.7c-1.8,12,9.1,13.2,14.2,22.4C194.2,54.2,185.9,52.2,178.8,45.7L178.8,45.7z M176,52.8c-2.9,12.9,9.7,17.9,13.8,31.8   C198.4,66,181,65.8,176,52.8L176,52.8z M174.4,65.2c-1,14.8,7.6,19.1,6.3,33C196,85.8,178.5,75,174.4,65.2L174.4,65.2z    M171.3,74.4c-5.5,10.2,2.5,18,0.2,31.4C183.7,95.5,175.1,87.7,171.3,74.4L171.3,74.4z M166.2,82.6c-0.2,13.4,9.4,23-7.3,30   C166.9,102.8,157.2,88.2,166.2,82.6L166.2,82.6z M158.4,89.9c-9.3,5.7-5.8,14.9-6.8,25.1C160.8,107.9,159.2,103,158.4,89.9   L158.4,89.9z M141.6,89.9c9.3,5.7,5.8,14.9,6.8,25.1C139.2,107.9,140.8,103,141.6,89.9L141.6,89.9z M133.8,82.6   c0.2,13.4-9.4,23,7.3,30C133.1,102.8,142.8,88.2,133.8,82.6L133.8,82.6z M147.7,86.5c1.6,1.5,2.4,1.6,4,0.1l5.7-5.3   c1.8-1.7,1.9-2.6,0-4l-5-3.7c-2-1.3-2.9-1.3-5-0.1l-5.3,3.9c-1.6,1.2-1.5,2.3,0,3.7L147.7,86.5L147.7,86.5z M128.7,74.4   c-3.9,13.3-12.5,21.1-0.2,31.4C126.3,92.4,134.2,84.6,128.7,74.4L128.7,74.4z M125.6,65.2c-4.1,9.8-21.6,20.6-6.3,33   C118.1,84.3,126.6,80,125.6,65.2L125.6,65.2z M124,52.8c-5,13-22.4,13.3-13.8,31.8C114.3,70.6,127,65.6,124,52.8L124,52.8z    M121.2,45.7c-7.1,6.4-15.3,8.5-14.2,22.4C112.1,59,123,57.7,121.2,45.7L121.2,45.7z M119.7,38.8c0.9,7.1-5.1,7.6-12.1,15   C107.8,43.7,113.8,43.1,119.7,38.8z"></path>	</g>	<g>		<g>			<path class="st0" d="M163.8,194.7v-55.9l-55.3,0c-9.5,0-17.2,6.7-17.2,15.7c0,9.2,4.5,17.1,14.8,17.1h20.7c2.5,0,6.7,1.4,6.7,6.2    c0,4.4-2.1,7.2-6.7,7.2H91.3v9.8h37.2c10.1,0,15.5-7.1,15.5-16.5c0-10.8-5.7-16.2-15.5-16.2h-20.5c-3.1,0-6-2.3-6-6.6    c0-4.2,3-6.8,6.9-6.8h45.7v46.1H163.8z"></path>			<path class="st0" d="M55.3,162.2h-24v8.7h20v6.9c0,2-1.5,7.1-10.8,7.1h-8.6c-14.6,0-17.5-7.7-17.5-18.3c0-10.6,3-18.5,17.5-18.5    h28.8v-9.4H31.9c-18.3,0-27.1,11-27.1,27.5c0,16.2,8,28.5,27.1,28.5c21.7,0,28.8-5,28.8-18.7c0-2.5,0-5.2,0-8.3    C60.7,164.8,58,162.2,55.3,162.2z"></path>			<path class="st0" d="M181.9,194.7h1.8h38.5H239h10v0l47,0l-22.6-53c-1.7-4-10.1-3.9-11.8,0L242.7,186H231l20.3-47.3H241    l-18.4,42.5l-18.1-42.5H194l20.3,47.3h-30.7v-47.3h-9.5v47.6c0,5.1,0.8,8.3,7.2,8.3H181.9L181.9,194.7z M282,185.9l-29,0    l14.5-33.9L282,185.9z"></path>			<rect x="71.3" y="185.1" class="st0" width="9.6" height="9.6"></rect>		</g>		<g>			<path class="st1" d="M163,192.7v-55.9l-55.3,0c-9.5,0-17.2,6.7-17.2,15.7c0,9.2,4.5,17.1,14.8,17.1h20.7c2.5,0,6.7,1.4,6.7,6.2    c0,4.4-2.1,7.2-6.7,7.2H90.5v9.8h37.2c10.1,0,15.5-7.1,15.5-16.5c0-10.8-5.7-16.2-15.5-16.2h-20.5c-3.1,0-6-2.3-6-6.6    c0-4.2,3-6.8,6.9-6.8h45.7v46.1H163z"></path>			<path class="st1" d="M54.5,160.3h-24v8.7h20v6.9c0,2-1.5,7.1-10.8,7.1h-8.6c-14.6,0-17.5-7.7-17.5-18.3c0-10.6,3-18.5,17.5-18.5    h28.8v-9.4H31.1c-18.3,0-27.1,11-27.1,27.5c0,16.2,8,28.5,27.1,28.5c21.7,0,28.8-5,28.8-18.7c0-2.5,0-5.2,0-8.3    C59.9,162.9,57.2,160.3,54.5,160.3z"></path>			<path class="st1" d="M181.1,192.7h1.8h38.5h16.8h10v0l47,0l-22.6-53c-1.7-4-10.1-3.9-11.8,0l-18.9,44.3h-11.7l20.3-47.3h-10.3    l-18.4,42.5l-18.1-42.5h-10.4l20.3,47.3h-30.7v-47.3h-9.5v47.6c0,5.1,0.8,8.3,7.2,8.3H181.1L181.1,192.7z M281.1,183.9l-29,0    l14.5-33.9L281.1,183.9z"></path>			<rect x="70.4" y="183.2" class="st1" width="9.6" height="9.6"></rect>		</g>	</g></g></svg>